<?xml version="1.0" encoding="utf-8"?>
<!-- Generator: Adobe Illustrator 24.3.0, SVG Export Plug-In . SVG Version: 6.00 Build 0)  -->
<svg version="1.1" id="图层_1" xmlns="http://www.w3.org/2000/svg" xmlns:xlink="http://www.w3.org/1999/xlink" x="0px" y="0px"
	 viewBox="0 0 24 24" style="enable-background:new 0 0 24 24;" xml:space="preserve">
<style type="text/css">
	.st0{fill:none;}
	.st1{fill:#0D0D0D;}
</style>
<rect class="st0" width="24" height="24"/>
<path id="形状" d="M7,5c0.6,0,1,0.4,1,1v12c0,0.6-0.4,1-1,1s-1-0.4-1-1V6C6,5.4,6.4,5,7,5z M17.7,5.3
	c0.4,0.4,0.4,1,0,1.4L12.4,12l5.3,5.3c0.4,0.4,0.4,1,0,1.4c-0.4,0.4-1,0.4-1.4,0l-6-6c-0.4-0.4-0.4-1,0-1.4l6-6
	C16.7,4.9,17.3,4.9,17.7,5.3z"/>
</svg>
