<?xml version="1.0" encoding="utf-8"?>
<!-- Generator: Adobe Illustrator 24.3.0, SVG Export Plug-In . SVG Version: 6.00 Build 0)  -->
<svg version="1.1" id="图层_1" xmlns="http://www.w3.org/2000/svg" xmlns:xlink="http://www.w3.org/1999/xlink" x="0px" y="0px"
	 viewBox="0 0 30 30" style="enable-background:new 0 0 30 30;" xml:space="preserve">
<style type="text/css">
	.st0{fill-opacity:0;}
</style>
<rect id="矩形" class="st0" width="30" height="30"/>
<path id="路径" class="st1" d="M12.5,12.5h-10c-0.7,0-1.3,0.3-1.8,0.7S0,14.3,0,15c0,1.4,1.1,2.5,2.5,2.5h10v10
	c0,1.4,1.1,2.5,2.5,2.5c1.4,0,2.5-1.1,2.5-2.5v-10h10c0.7,0,1.3-0.3,1.8-0.7S30,15.7,30,15c0-1.4-1.1-2.5-2.5-2.5h-10v-10
	c0-0.7-0.3-1.3-0.7-1.8S15.7,0,15,0c-1.4,0-2.5,1.1-2.5,2.5V12.5z"/>
</svg>
